<svg width="16" height="16" viewBox="0 0 16 16" fill="none" xmlns="http://www.w3.org/2000/svg">
<path d="M9.7634 7.99999L15.1384 2.63749C15.3738 2.40211 15.506 2.08286 15.506 1.74999C15.506 1.41711 15.3738 1.09787 15.1384 0.862488C14.903 0.627108 14.5838 0.494873 14.2509 0.494873C13.918 0.494873 13.5988 0.627108 13.3634 0.862488L8.0009 6.23749L2.6384 0.862488C2.40302 0.627108 2.08378 0.494873 1.7509 0.494873C1.41802 0.494873 1.09878 0.627108 0.8634 0.862488C0.628021 1.09787 0.495786 1.41711 0.495786 1.74999C0.495786 2.08286 0.628021 2.40211 0.8634 2.63749L6.2384 7.99999L0.8634 13.3625C0.74624 13.4787 0.653247 13.6169 0.589786 13.7693C0.526325 13.9216 0.493652 14.085 0.493652 14.25C0.493652 14.415 0.526325 14.5784 0.589786 14.7307C0.653247 14.883 0.74624 15.0213 0.8634 15.1375C0.979604 15.2546 1.11786 15.3476 1.27018 15.4111C1.4225 15.4746 1.58589 15.5072 1.7509 15.5072C1.91592 15.5072 2.0793 15.4746 2.23162 15.4111C2.38395 15.3476 2.5222 15.2546 2.6384 15.1375L8.0009 9.76249L13.3634 15.1375C13.4796 15.2546 13.6179 15.3476 13.7702 15.4111C13.9225 15.4746 14.0859 15.5072 14.2509 15.5072C14.4159 15.5072 14.5793 15.4746 14.7316 15.4111C14.8839 15.3476 15.0222 15.2546 15.1384 15.1375C15.2556 15.0213 15.3486 14.883 15.412 14.7307C15.4755 14.5784 15.5081 14.415 15.5081 14.25C15.5081 14.085 15.4755 13.9216 15.412 13.7693C15.3486 13.6169 15.2556 13.4787 15.1384 13.3625L9.7634 7.99999Z" fill="white"/>
</svg>
