<svg width="16" height="16" viewBox="0 0 16 16" fill="none" xmlns="http://www.w3.org/2000/svg">
<path d="M9.76316 7.99974L15.1382 2.63724C15.3735 2.40186 15.5058 2.08262 15.5058 1.74974C15.5058 1.41687 15.3735 1.09762 15.1382 0.862244C14.9028 0.626864 14.5835 0.494629 14.2507 0.494629C13.9178 0.494629 13.5985 0.626864 13.3632 0.862244L8.00066 6.23724L2.63816 0.862244C2.40278 0.626864 2.08353 0.494629 1.75066 0.494629C1.41778 0.494629 1.09854 0.626864 0.863156 0.862244C0.627776 1.09762 0.495541 1.41687 0.495541 1.74974C0.495541 2.08262 0.627776 2.40186 0.863156 2.63724L6.23816 7.99974L0.863156 13.3622C0.745996 13.4784 0.653003 13.6167 0.589542 13.769C0.526081 13.9213 0.493408 14.0847 0.493408 14.2497C0.493408 14.4148 0.526081 14.5781 0.589542 14.7305C0.653003 14.8828 0.745996 15.021 0.863156 15.1372C0.97936 15.2544 1.11761 15.3474 1.26994 15.4109C1.42226 15.4743 1.58564 15.507 1.75066 15.507C1.91567 15.507 2.07905 15.4743 2.23138 15.4109C2.3837 15.3474 2.52195 15.2544 2.63816 15.1372L8.00066 9.76224L13.3632 15.1372C13.4794 15.2544 13.6176 15.3474 13.7699 15.4109C13.9223 15.4743 14.0856 15.507 14.2507 15.507C14.4157 15.507 14.5791 15.4743 14.7314 15.4109C14.8837 15.3474 15.022 15.2544 15.1382 15.1372C15.2553 15.021 15.3483 14.8828 15.4118 14.7305C15.4752 14.5781 15.5079 14.4148 15.5079 14.2497C15.5079 14.0847 15.4752 13.9213 15.4118 13.769C15.3483 13.6167 15.2553 13.4784 15.1382 13.3622L9.76316 7.99974Z" fill="white"/>
</svg>
