<svg width="25" height="20" viewBox="0 0 25 20" fill="none" xmlns="http://www.w3.org/2000/svg">
<path d="M24.2077 9.21588C21.851 3.74421 17.4177 0.349213 12.6344 0.349213C7.85102 0.349213 3.41769 3.74421 1.06102 9.21588C0.996781 9.36307 0.963623 9.52194 0.963623 9.68255C0.963623 9.84315 0.996781 10.002 1.06102 10.1492C3.41769 15.6209 7.85102 19.0159 12.6344 19.0159C17.4177 19.0159 21.851 15.6209 24.2077 10.1492C24.2719 10.002 24.3051 9.84315 24.3051 9.68255C24.3051 9.52194 24.2719 9.36307 24.2077 9.21588ZM12.6344 16.6825C8.92436 16.6825 5.43602 14.0109 3.41769 9.68255C5.43602 5.35421 8.92436 2.68255 12.6344 2.68255C16.3444 2.68255 19.8327 5.35421 21.851 9.68255C19.8327 14.0109 16.3444 16.6825 12.6344 16.6825ZM12.6344 5.01588C11.7114 5.01588 10.8091 5.28957 10.0417 5.80235C9.27427 6.31513 8.67613 7.04397 8.32292 7.89669C7.96971 8.74941 7.87729 9.68772 8.05736 10.593C8.23742 11.4982 8.68188 12.3297 9.33452 12.9824C9.98717 13.635 10.8187 14.0795 11.7239 14.2595C12.6292 14.4396 13.5675 14.3472 14.4202 13.994C15.2729 13.6408 16.0018 13.0426 16.5145 12.2752C17.0273 11.5078 17.301 10.6055 17.301 9.68255C17.301 8.44487 16.8094 7.25788 15.9342 6.38271C15.059 5.50754 13.872 5.01588 12.6344 5.01588ZM12.6344 12.0159C12.1729 12.0159 11.7217 11.879 11.338 11.6226C10.9543 11.3663 10.6552 11.0018 10.4786 10.5755C10.302 10.1491 10.2558 9.67996 10.3459 9.22733C10.4359 8.77471 10.6581 8.35895 10.9844 8.03263C11.3108 7.70631 11.7265 7.48408 12.1791 7.39405C12.6318 7.30401 13.1009 7.35022 13.5273 7.52683C13.9536 7.70343 14.3181 8.0025 14.5745 8.38622C14.8308 8.76993 14.9677 9.22106 14.9677 9.68255C14.9677 10.3014 14.7219 10.8949 14.2843 11.3325C13.8467 11.77 13.2532 12.0159 12.6344 12.0159Z" fill="#9E99A4"/>
</svg>
