<svg width="20" height="21" viewBox="0 0 20 21" fill="none" xmlns="http://www.w3.org/2000/svg">
<path d="M18.2646 9.88585C16.5813 5.97752 13.4146 3.55252 9.99797 3.55252C6.5813 3.55252 3.41464 5.97752 1.7313 9.88585C1.68542 9.99099 1.66173 10.1045 1.66173 10.2192C1.66173 10.3339 1.68542 10.4474 1.7313 10.5525C3.41464 14.4609 6.5813 16.8859 9.99797 16.8859C13.4146 16.8859 16.5813 14.4609 18.2646 10.5525C18.3105 10.4474 18.3342 10.3339 18.3342 10.2192C18.3342 10.1045 18.3105 9.99099 18.2646 9.88585ZM9.99797 15.2192C7.34797 15.2192 4.8563 13.3109 3.41464 10.2192C4.8563 7.12752 7.34797 5.21919 9.99797 5.21919C12.648 5.21919 15.1396 7.12752 16.5813 10.2192C15.1396 13.3109 12.648 15.2192 9.99797 15.2192ZM9.99797 6.88585C9.3387 6.88585 8.69423 7.08135 8.14607 7.44762C7.59791 7.81389 7.17066 8.33449 6.91837 8.94358C6.66608 9.55266 6.60007 10.2229 6.72869 10.8695C6.8573 11.5161 7.17477 12.11 7.64095 12.5762C8.10712 13.0424 8.70107 13.3599 9.34767 13.4885C9.99427 13.6171 10.6645 13.5511 11.2736 13.2988C11.8827 13.0465 12.4033 12.6193 12.7695 12.0711C13.1358 11.5229 13.3313 10.8785 13.3313 10.2192C13.3313 9.33513 12.9801 8.48729 12.355 7.86216C11.7299 7.23704 10.882 6.88585 9.99797 6.88585ZM9.99797 11.8859C9.66833 11.8859 9.3461 11.7881 9.07202 11.605C8.79794 11.4218 8.58432 11.1615 8.45817 10.857C8.33202 10.5524 8.29902 10.2173 8.36333 9.89404C8.42764 9.57074 8.58637 9.27376 8.81946 9.04068C9.05255 8.80759 9.34952 8.64885 9.67282 8.58455C9.99612 8.52024 10.3312 8.55324 10.6358 8.67939C10.9403 8.80553 11.2006 9.01916 11.3838 9.29324C11.5669 9.56732 11.6646 9.88955 11.6646 10.2192C11.6646 10.6612 11.489 11.0851 11.1765 11.3977C10.8639 11.7103 10.44 11.8859 9.99797 11.8859Z" fill="#9E99A4"/>
<path d="M18.09 1.96085C18.0125 1.88275 17.9204 1.82075 17.8188 1.77844C17.7173 1.73614 17.6083 1.71436 17.4983 1.71436C17.3883 1.71436 17.2794 1.73614 17.1778 1.77844C17.0763 1.82075 16.9841 1.88275 16.9067 1.96085L1.90665 16.9609C1.82855 17.0383 1.76655 17.1305 1.72425 17.232C1.68194 17.3336 1.66016 17.4425 1.66016 17.5525C1.66016 17.6625 1.68194 17.7715 1.72425 17.873C1.76655 17.9746 1.82855 18.0667 1.90665 18.1442C1.98412 18.2223 2.07629 18.2843 2.17784 18.3266C2.27939 18.3689 2.38831 18.3907 2.49832 18.3907C2.60833 18.3907 2.71725 18.3689 2.8188 18.3266C2.92035 18.2843 3.01252 18.2223 3.08999 18.1442L18.09 3.14419C18.1681 3.06672 18.2301 2.97455 18.2724 2.873C18.3147 2.77145 18.3365 2.66253 18.3365 2.55252C18.3365 2.44251 18.3147 2.33359 18.2724 2.23204C18.2301 2.13049 18.1681 2.03832 18.09 1.96085Z" fill="#9E99A4"/>
</svg>
