<svg width="16" height="12" viewBox="0 0 16 12" fill="none" xmlns="http://www.w3.org/2000/svg">
<path d="M15.2691 0.81085C15.1684 0.709311 15.0486 0.628717 14.9166 0.573718C14.7845 0.518718 14.6429 0.490402 14.4999 0.490402C14.3569 0.490402 14.2153 0.518718 14.0833 0.573718C13.9513 0.628717 13.8315 0.709311 13.7308 0.81085L5.65994 8.89252L2.2691 5.49085C2.16454 5.38984 2.0411 5.31042 1.90584 5.25711C1.77058 5.20381 1.62615 5.17767 1.48078 5.18018C1.33542 5.1827 1.19198 5.21382 1.05864 5.27177C0.925309 5.32972 0.804694 5.41337 0.703685 5.51793C0.602677 5.6225 0.523253 5.74594 0.469949 5.8812C0.416645 6.01645 0.390504 6.16089 0.393018 6.30625C0.395533 6.45161 0.426655 6.59506 0.484606 6.72839C0.542558 6.86173 0.626204 6.98234 0.730769 7.08335L4.89077 11.2434C4.99148 11.3449 5.1113 11.4255 5.24331 11.4805C5.37533 11.5355 5.51692 11.5638 5.65994 11.5638C5.80295 11.5638 5.94455 11.5355 6.07656 11.4805C6.20858 11.4255 6.32839 11.3449 6.4291 11.2434L15.2691 2.40335C15.3791 2.3019 15.4668 2.17878 15.5268 2.04174C15.5869 1.9047 15.6179 1.75671 15.6179 1.6071C15.6179 1.45749 15.5869 1.3095 15.5268 1.17246C15.4668 1.03542 15.3791 0.912296 15.2691 0.81085Z" fill="black"/>
</svg>
