<svg width="18" height="18" viewBox="0 0 18 18" fill="none" xmlns="http://www.w3.org/2000/svg">
<path d="M8.99996 6.5C8.83514 6.5 8.67403 6.54887 8.53698 6.64044C8.39994 6.73201 8.29313 6.86216 8.23006 7.01443C8.16699 7.1667 8.15048 7.33426 8.18264 7.49591C8.21479 7.65756 8.29416 7.80604 8.4107 7.92259C8.52725 8.03913 8.67573 8.1185 8.83738 8.15065C8.99903 8.18281 9.16659 8.1663 9.31886 8.10323C9.47113 8.04016 9.60128 7.93335 9.69285 7.79631C9.78442 7.65927 9.83329 7.49815 9.83329 7.33333C9.83329 7.11232 9.7455 6.90036 9.58922 6.74408C9.43293 6.58779 9.22097 6.5 8.99996 6.5ZM14.8333 0.666664H3.16663C2.50358 0.666664 1.8677 0.930056 1.39886 1.3989C0.930018 1.86774 0.666626 2.50362 0.666626 3.16666V11.5C0.666626 12.163 0.930018 12.7989 1.39886 13.2678C1.8677 13.7366 2.50358 14 3.16663 14H12.825L15.9083 17.0917C15.9862 17.1689 16.0785 17.23 16.18 17.2715C16.2816 17.3129 16.3903 17.334 16.5 17.3333C16.6093 17.3361 16.7177 17.3133 16.8166 17.2667C16.9688 17.2041 17.0991 17.098 17.191 16.9615C17.283 16.8251 17.3325 16.6645 17.3333 16.5V3.16666C17.3333 2.50362 17.0699 1.86774 16.6011 1.3989C16.1322 0.930056 15.4963 0.666664 14.8333 0.666664ZM15.6666 14.4917L13.7583 12.575C13.6804 12.4978 13.5881 12.4367 13.4865 12.3952C13.385 12.3537 13.2763 12.3327 13.1666 12.3333H3.16663C2.94561 12.3333 2.73365 12.2455 2.57737 12.0893C2.42109 11.933 2.33329 11.721 2.33329 11.5V3.16666C2.33329 2.94565 2.42109 2.73369 2.57737 2.57741C2.73365 2.42113 2.94561 2.33333 3.16663 2.33333H14.8333C15.0543 2.33333 15.2663 2.42113 15.4225 2.57741C15.5788 2.73369 15.6666 2.94565 15.6666 3.16666V14.4917ZM5.66663 6.5C5.50181 6.5 5.34069 6.54887 5.20365 6.64044C5.06661 6.73201 4.9598 6.86216 4.89673 7.01443C4.83365 7.1667 4.81715 7.33426 4.84931 7.49591C4.88146 7.65756 4.96083 7.80604 5.07737 7.92259C5.19391 8.03913 5.3424 8.1185 5.50405 8.15065C5.6657 8.18281 5.83326 8.1663 5.98553 8.10323C6.1378 8.04016 6.26795 7.93335 6.35952 7.79631C6.45109 7.65927 6.49996 7.49815 6.49996 7.33333C6.49996 7.11232 6.41216 6.90036 6.25588 6.74408C6.0996 6.58779 5.88764 6.5 5.66663 6.5ZM12.3333 6.5C12.1685 6.5 12.0074 6.54887 11.8703 6.64044C11.7333 6.73201 11.6265 6.86216 11.5634 7.01443C11.5003 7.1667 11.4838 7.33426 11.516 7.49591C11.5481 7.65756 11.6275 7.80604 11.744 7.92259C11.8606 8.03913 12.0091 8.1185 12.1707 8.15065C12.3324 8.18281 12.4999 8.1663 12.6522 8.10323C12.8045 8.04016 12.9346 7.93335 13.0262 7.79631C13.1178 7.65927 13.1666 7.49815 13.1666 7.33333C13.1666 7.11232 13.0788 6.90036 12.9225 6.74408C12.7663 6.58779 12.5543 6.5 12.3333 6.5Z" fill="white"/>
</svg>
