<svg width="24" height="24" viewBox="0 0 24 24" fill="none" xmlns="http://www.w3.org/2000/svg">
<path d="M22.5 12C22.1906 12 21.8938 12.1229 21.6751 12.3417C21.4563 12.5605 21.3333 12.8572 21.3333 13.1667V20.1667C21.3333 20.4761 21.2104 20.7728 20.9916 20.9916C20.7728 21.2104 20.4761 21.3333 20.1667 21.3333H3.83334C3.52392 21.3333 3.22718 21.2104 3.00839 20.9916C2.78959 20.7728 2.66668 20.4761 2.66668 20.1667V3.83333C2.66668 3.52391 2.78959 3.22717 3.00839 3.00838C3.22718 2.78958 3.52392 2.66667 3.83334 2.66667H10.8333C11.1428 2.66667 11.4395 2.54375 11.6583 2.32496C11.8771 2.10617 12 1.80942 12 1.5C12 1.19058 11.8771 0.893835 11.6583 0.675042C11.4395 0.45625 11.1428 0.333333 10.8333 0.333333H3.83334C2.90509 0.333333 2.01485 0.702082 1.35847 1.35846C0.702093 2.01484 0.333344 2.90508 0.333344 3.83333V20.1667C0.333344 21.0949 0.702093 21.9852 1.35847 22.6415C2.01485 23.2979 2.90509 23.6667 3.83334 23.6667H20.1667C21.0949 23.6667 21.9852 23.2979 22.6416 22.6415C23.2979 21.9852 23.6667 21.0949 23.6667 20.1667V13.1667C23.6667 12.8572 23.5438 12.5605 23.325 12.3417C23.1062 12.1229 22.8094 12 22.5 12ZM5.00001 12.8867V17.8333C5.00001 18.1428 5.12293 18.4395 5.34172 18.6583C5.56051 18.8771 5.85726 19 6.16668 19H11.1133C11.2669 19.0009 11.4191 18.9715 11.5612 18.9134C11.7034 18.8553 11.8327 18.7698 11.9417 18.6617L20.015 10.5767L23.3283 7.33333C23.4377 7.22488 23.5245 7.09584 23.5837 6.95367C23.6429 6.8115 23.6734 6.65901 23.6734 6.505C23.6734 6.35099 23.6429 6.1985 23.5837 6.05633C23.5245 5.91416 23.4377 5.78512 23.3283 5.67667L18.3817 0.671667C18.2732 0.562317 18.1442 0.475523 18.002 0.416293C17.8598 0.357063 17.7074 0.326569 17.5533 0.326569C17.3993 0.326569 17.2468 0.357063 17.1047 0.416293C16.9625 0.475523 16.8335 0.562317 16.725 0.671667L13.435 3.97333L5.33834 12.0583C5.23022 12.1673 5.14467 12.2966 5.08661 12.4388C5.02855 12.5809 4.99912 12.7331 5.00001 12.8867ZM17.5533 3.145L20.855 6.44667L19.1983 8.10333L15.8967 4.80167L17.5533 3.145ZM7.33334 13.365L14.2517 6.44667L17.5533 9.74833L10.635 16.6667H7.33334V13.365Z" fill="black"/>
</svg>
