<svg width="19" height="19" viewBox="0 0 19 19" fill="none" xmlns="http://www.w3.org/2000/svg">
<path d="M17.6368 7.81955C17.3909 7.52437 17.0832 7.28675 16.7355 7.12346C16.3878 6.96018 16.0084 6.87521 15.6243 6.87455H11.6343L12.1243 5.6233C12.3281 5.07545 12.396 4.48633 12.3221 3.90648C12.2482 3.32663 12.0347 2.77336 11.7001 2.29413C11.3654 1.81489 10.9194 1.424 10.4005 1.15498C9.88151 0.885954 9.30505 0.746835 8.72052 0.749551C8.5522 0.749902 8.38756 0.798792 8.24633 0.890358C8.1051 0.981925 7.99328 1.11228 7.92427 1.2658L5.43052 6.87455H3.37427C2.67807 6.87455 2.0104 7.15111 1.51811 7.6434C1.02583 8.13568 0.749268 8.80336 0.749268 9.49955V15.6245C0.749268 16.3207 1.02583 16.9884 1.51811 17.4807C2.0104 17.973 2.67807 18.2495 3.37427 18.2495H14.513C15.1271 18.2493 15.7217 18.0339 16.1933 17.6406C16.6649 17.2473 16.9837 16.7011 17.0943 16.0971L18.2055 9.97205C18.2743 9.59351 18.2589 9.20448 18.1606 8.83252C18.0624 8.46055 17.8835 8.11474 17.6368 7.81955ZM5.12427 16.4995H3.37427C3.1422 16.4995 2.91964 16.4074 2.75555 16.2433C2.59145 16.0792 2.49927 15.8566 2.49927 15.6245V9.49955C2.49927 9.26749 2.59145 9.04493 2.75555 8.88083C2.91964 8.71674 3.1422 8.62455 3.37427 8.62455H5.12427V16.4995ZM16.4993 9.65705L15.388 15.7821C15.3507 15.9859 15.2423 16.1699 15.0821 16.3013C14.9219 16.4327 14.7202 16.5029 14.513 16.4995H6.87427V7.9333L9.25427 2.5783C9.49925 2.64972 9.72677 2.77116 9.92247 2.93494C10.1182 3.09872 10.2778 3.30128 10.3912 3.52986C10.5047 3.75843 10.5696 4.00804 10.5817 4.26294C10.5938 4.51784 10.553 4.77248 10.4618 5.0108L9.99802 6.26205C9.8992 6.52652 9.86584 6.81098 9.90078 7.09114C9.93573 7.3713 10.0379 7.63885 10.1987 7.87095C10.3594 8.10305 10.574 8.29281 10.8239 8.42404C11.0739 8.55526 11.3519 8.62406 11.6343 8.62455H15.6243C15.7528 8.62434 15.8798 8.65246 15.9963 8.7069C16.1127 8.76135 16.2157 8.84078 16.298 8.93955C16.3823 9.03696 16.4441 9.15178 16.4788 9.27581C16.5136 9.39983 16.5206 9.53001 16.4993 9.65705Z" fill="white"/>
</svg>
