<svg width="24" height="24" viewBox="0 0 24 24" fill="none" xmlns="http://www.w3.org/2000/svg">
<path d="M16.9992 9.16958C16.8119 8.98333 16.5584 8.87878 16.2942 8.87878C16.03 8.87878 15.7766 8.98333 15.5892 9.16958L11.9992 12.7096L8.45922 9.16958C8.27185 8.98333 8.0184 8.87878 7.75422 8.87878C7.49003 8.87878 7.23658 8.98333 7.04922 9.16958C6.95549 9.26254 6.88109 9.37314 6.83032 9.495C6.77956 9.61686 6.75342 9.74756 6.75342 9.87958C6.75342 10.0116 6.77956 10.1423 6.83032 10.2642C6.88109 10.386 6.95549 10.4966 7.04922 10.5896L11.2892 14.8296C11.3822 14.9233 11.4928 14.9977 11.6146 15.0485C11.7365 15.0992 11.8672 15.1254 11.9992 15.1254C12.1312 15.1254 12.2619 15.0992 12.3838 15.0485C12.5057 14.9977 12.6163 14.9233 12.7092 14.8296L16.9992 10.5896C17.0929 10.4966 17.1673 10.386 17.2181 10.2642C17.2689 10.1423 17.295 10.0116 17.295 9.87958C17.295 9.74756 17.2689 9.61686 17.2181 9.495C17.1673 9.37314 17.0929 9.26254 16.9992 9.16958Z" fill="black"/>
</svg>
