<svg width="16" height="18" viewBox="0 0 16 18" fill="none" xmlns="http://www.w3.org/2000/svg">
<path d="M14.7271 8.11817L1.99987 0.772718C1.86167 0.692928 1.70491 0.650923 1.54533 0.650923C1.38575 0.650923 1.22898 0.692928 1.09078 0.772718C0.952052 0.852813 0.836948 0.968144 0.757127 1.10703C0.677306 1.24592 0.635602 1.40344 0.636238 1.56363V16.2545C0.635602 16.4147 0.677306 16.5722 0.757127 16.7111C0.836948 16.85 0.952052 16.9654 1.09078 17.0454C1.22898 17.1252 1.38575 17.1672 1.54533 17.1672C1.70491 17.1672 1.86167 17.1252 1.99987 17.0454L14.7271 9.69999C14.8671 9.6207 14.9834 9.50572 15.0644 9.36678C15.1454 9.22783 15.188 9.0699 15.188 8.90908C15.188 8.74827 15.1454 8.59033 15.0644 8.45139C14.9834 8.31244 14.8671 8.19746 14.7271 8.11817ZM2.45442 14.6818V3.13635L12.4544 8.90908L2.45442 14.6818Z" fill="#E72487"/>
</svg>
