<svg width="26" height="26" viewBox="0 0 26 26" fill="none" xmlns="http://www.w3.org/2000/svg">
<path d="M17.6376 13.8875C18.8631 12.9233 19.7576 11.6012 20.1967 10.1049C20.6357 8.6087 20.5975 7.01283 20.0874 5.53933C19.5772 4.06584 18.6204 2.78799 17.3502 1.88357C16.08 0.979148 14.5594 0.49313 13.0001 0.49313C11.4408 0.49313 9.92026 0.979148 8.65003 1.88357C7.3798 2.78799 6.42305 4.06584 5.91288 5.53933C5.40272 7.01283 5.36451 8.6087 5.80357 10.1049C6.24263 11.6012 7.13713 12.9233 8.36262 13.8875C6.26271 14.7288 4.43048 16.1242 3.06123 17.9249C1.69199 19.7256 0.837072 21.8641 0.587618 24.1125C0.569561 24.2766 0.584014 24.4428 0.63015 24.6013C0.676286 24.7599 0.753202 24.9078 0.856507 25.0367C1.06514 25.2969 1.3686 25.4635 1.70012 25.5C2.03164 25.5365 2.36407 25.4397 2.62427 25.2311C2.88448 25.0225 3.05115 24.719 3.08762 24.3875C3.3621 21.944 4.52723 19.6873 6.36039 18.0485C8.19356 16.4097 10.5662 15.5038 13.0251 15.5038C15.484 15.5038 17.8567 16.4097 19.6898 18.0485C21.523 19.6873 22.6881 21.944 22.9626 24.3875C22.9966 24.6946 23.1432 24.9783 23.374 25.1838C23.6048 25.3892 23.9036 25.5019 24.2126 25.5H24.3501C24.6778 25.4623 24.9773 25.2966 25.1833 25.0391C25.3894 24.7815 25.4853 24.4529 25.4501 24.125C25.1995 21.8703 24.34 19.7262 22.9637 17.9228C21.5874 16.1193 19.7463 14.7243 17.6376 13.8875ZM13.0001 13C12.0112 13 11.0445 12.7068 10.2223 12.1573C9.40002 11.6079 8.75916 10.827 8.38072 9.91342C8.00228 8.99979 7.90326 7.99445 8.09619 7.02455C8.28912 6.05464 8.76532 5.16373 9.46458 4.46446C10.1638 3.7652 11.0548 3.289 12.0247 3.09607C12.9946 2.90315 13.9999 3.00216 14.9135 3.3806C15.8272 3.75904 16.6081 4.3999 17.1575 5.22215C17.7069 6.04439 18.0001 7.01109 18.0001 8C18.0001 9.32608 17.4733 10.5979 16.5357 11.5355C15.598 12.4732 14.3262 13 13.0001 13Z" fill="black"/>
</svg>
