<svg width="30" height="31" viewBox="0 0 30 31" fill="none" xmlns="http://www.w3.org/2000/svg">
<path d="M19.9095 16.535C21.3392 15.4101 22.3828 13.8676 22.8951 12.122C23.4073 10.3764 23.3627 8.51452 22.7675 6.79544C22.1723 5.07636 21.0561 3.58554 19.5742 2.53038C18.0922 1.47522 16.3183 0.908203 14.4991 0.908203C12.6799 0.908203 10.9059 1.47522 9.42398 2.53038C7.94204 3.58554 6.82583 5.07636 6.23064 6.79544C5.63545 8.51452 5.59087 10.3764 6.10311 12.122C6.61534 13.8676 7.65893 15.4101 9.08866 16.535C6.63878 17.5165 4.50117 19.1444 2.90371 21.2453C1.30626 23.3461 0.308859 25.841 0.0178296 28.4641C-0.00323658 28.6556 0.0136246 28.8494 0.0674501 29.0344C0.121276 29.2194 0.211011 29.392 0.331534 29.5423C0.574941 29.8459 0.928972 30.0403 1.31575 30.0829C1.70252 30.1254 2.09035 30.0126 2.39393 29.7692C2.6975 29.5258 2.89195 29.1717 2.9345 28.785C3.25472 25.9342 4.61404 23.3014 6.75273 21.3895C8.89143 19.4776 11.6596 18.4206 14.5282 18.4206C17.3969 18.4206 20.1651 19.4776 22.3038 21.3895C24.4425 23.3014 25.8018 25.9342 26.122 28.785C26.1616 29.1433 26.3326 29.4743 26.6019 29.7139C26.8713 29.9536 27.2198 30.0851 27.5803 30.0829H27.7407C28.123 30.0389 28.4724 29.8456 28.7128 29.5451C28.9532 29.2446 29.0651 28.8613 29.0241 28.4787C28.7317 25.8482 27.7289 23.3468 26.1232 21.2428C24.5176 19.1387 22.3696 17.5113 19.9095 16.535V16.535ZM14.4991 15.4996C13.3454 15.4996 12.2175 15.1574 11.2583 14.5165C10.299 13.8755 9.55129 12.9644 9.10978 11.8985C8.66827 10.8326 8.55275 9.65975 8.77783 8.52819C9.00291 7.39664 9.55848 6.35723 10.3743 5.54143C11.1901 4.72562 12.2295 4.17005 13.3611 3.94497C14.4926 3.71989 15.6655 3.83541 16.7314 4.27692C17.7973 4.71843 18.7083 5.4661 19.3493 6.42539C19.9903 7.38468 20.3324 8.51249 20.3324 9.66622C20.3324 11.2133 19.7178 12.697 18.6239 13.791C17.5299 14.885 16.0462 15.4996 14.4991 15.4996Z" fill="white"/>
</svg>
