<svg width="50" height="50" viewBox="0 0 50 50" fill="none" xmlns="http://www.w3.org/2000/svg">
<path d="M42.5 7L0 0V50H50L42.5 7Z" fill="white"/>
<circle cx="13" cy="17" r="1" fill="#B20060" fill-opacity="0.5"/>
<ellipse cx="13" cy="23.8182" rx="1" ry="1" fill="#B20060" fill-opacity="0.5"/>
<circle cx="19.8181" cy="23.8182" r="1" fill="#B20060" fill-opacity="0.5"/>
<ellipse cx="26.6365" cy="23.8182" rx="1" ry="1" fill="#B20060" fill-opacity="0.5"/>
<ellipse cx="13" cy="30.6364" rx="1" ry="1" fill="#B20060" fill-opacity="0.5"/>
<ellipse cx="13" cy="37.4546" rx="1" ry="1" fill="#B20060" fill-opacity="0.5"/>
<ellipse cx="19.8181" cy="37.4546" rx="1" ry="1" fill="#B20060" fill-opacity="0.5"/>
<circle cx="26.6365" cy="37.4546" r="1" fill="#B20060" fill-opacity="0.5"/>
<circle cx="33.4546" cy="37.4546" r="1" fill="#B20060" fill-opacity="0.5"/>
<circle cx="33.4546" cy="30.6364" r="1" fill="#B20060" fill-opacity="0.5"/>
<circle cx="26.6365" cy="30.6364" r="1" fill="#B20060" fill-opacity="0.5"/>
<ellipse cx="19.8181" cy="30.6364" rx="1" ry="1" fill="#B20060" fill-opacity="0.5"/>
<ellipse cx="33.4546" cy="23.8182" rx="1" ry="1" fill="#B20060" fill-opacity="0.5"/>
<ellipse cx="33.4546" cy="17" rx="1" ry="1" fill="#B20060" fill-opacity="0.5"/>
<ellipse cx="26.6365" cy="17" rx="1" ry="1" fill="#B20060" fill-opacity="0.5"/>
<ellipse cx="19.8181" cy="17" rx="1" ry="1" fill="#B20060" fill-opacity="0.5"/>
</svg>
