<svg width="50" height="50" viewBox="0 0 50 50" fill="none" xmlns="http://www.w3.org/2000/svg">
<path d="M7.5 7L50 0V50H0L7.5 7Z" fill="white"/>
<circle cx="17" cy="17" r="1" fill="#B20060" fill-opacity="0.5"/>
<ellipse cx="17" cy="23.8182" rx="1" ry="1" fill="#B20060" fill-opacity="0.5"/>
<circle cx="23.8181" cy="23.8182" r="1" fill="#B20060" fill-opacity="0.5"/>
<ellipse cx="30.6365" cy="23.8182" rx="1" ry="1" fill="#B20060" fill-opacity="0.5"/>
<ellipse cx="17" cy="30.6364" rx="1" ry="1" fill="#B20060" fill-opacity="0.5"/>
<ellipse cx="17" cy="37.4546" rx="1" ry="1" fill="#B20060" fill-opacity="0.5"/>
<ellipse cx="23.8181" cy="37.4546" rx="1" ry="1" fill="#B20060" fill-opacity="0.5"/>
<circle cx="30.6365" cy="37.4546" r="1" fill="#B20060" fill-opacity="0.5"/>
<circle cx="37.4546" cy="37.4546" r="1" fill="#B20060" fill-opacity="0.5"/>
<circle cx="37.4546" cy="30.6364" r="1" fill="#B20060" fill-opacity="0.5"/>
<circle cx="30.6365" cy="30.6364" r="1" fill="#B20060" fill-opacity="0.5"/>
<ellipse cx="23.8181" cy="30.6364" rx="1" ry="1" fill="#B20060" fill-opacity="0.5"/>
<ellipse cx="37.4546" cy="23.8182" rx="1" ry="1" fill="#B20060" fill-opacity="0.5"/>
<ellipse cx="37.4546" cy="17" rx="1" ry="1" fill="#B20060" fill-opacity="0.5"/>
<ellipse cx="30.6365" cy="17" rx="1" ry="1" fill="#B20060" fill-opacity="0.5"/>
<ellipse cx="23.8181" cy="17" rx="1" ry="1" fill="#B20060" fill-opacity="0.5"/>
</svg>
