<svg width="50" height="50" viewBox="0 0 50 50" fill="none" xmlns="http://www.w3.org/2000/svg">
<path d="M42.4993 6.99957L-0.000732422 -0.000427246V49.9996H49.9993L42.4993 6.99957Z" fill="#B20060"/>
<circle cx="12.9993" cy="16.9996" r="1" fill="white" fill-opacity="0.5"/>
<ellipse cx="12.9993" cy="23.8177" rx="1" ry="1" fill="white" fill-opacity="0.5"/>
<circle cx="19.8174" cy="23.8177" r="1" fill="white" fill-opacity="0.5"/>
<ellipse cx="26.6357" cy="23.8177" rx="1" ry="1" fill="white" fill-opacity="0.5"/>
<ellipse cx="12.9993" cy="30.6359" rx="1" ry="1" fill="white" fill-opacity="0.5"/>
<ellipse cx="12.9993" cy="37.4541" rx="1" ry="1" fill="white" fill-opacity="0.5"/>
<ellipse cx="19.8174" cy="37.4541" rx="1" ry="1" fill="white" fill-opacity="0.5"/>
<circle cx="26.6357" cy="37.4541" r="1" fill="white" fill-opacity="0.5"/>
<circle cx="33.4539" cy="37.4541" r="1" fill="white" fill-opacity="0.5"/>
<circle cx="33.4539" cy="30.6359" r="1" fill="white" fill-opacity="0.5"/>
<circle cx="26.6357" cy="30.6359" r="1" fill="white" fill-opacity="0.5"/>
<ellipse cx="19.8174" cy="30.6359" rx="1" ry="1" fill="white" fill-opacity="0.5"/>
<ellipse cx="33.4539" cy="23.8177" rx="1" ry="1" fill="white" fill-opacity="0.5"/>
<ellipse cx="33.4539" cy="16.9996" rx="1" ry="1" fill="white" fill-opacity="0.5"/>
<ellipse cx="26.6357" cy="16.9996" rx="1" ry="1" fill="white" fill-opacity="0.5"/>
<ellipse cx="19.8174" cy="16.9996" rx="1" ry="1" fill="white" fill-opacity="0.5"/>
</svg>
