<svg width="16" height="26" viewBox="0 0 16 26" fill="none" xmlns="http://www.w3.org/2000/svg">
<path d="M14.4907 11.6983L4.11399 1.34C3.94356 1.16816 3.74079 1.03178 3.51738 0.938699C3.29397 0.845623 3.05435 0.797703 2.81233 0.797703C2.5703 0.797703 2.33068 0.845623 2.10727 0.938699C1.88386 1.03178 1.68109 1.16816 1.51066 1.34C1.1692 1.6835 0.977539 2.14816 0.977539 2.6325C0.977539 3.11684 1.1692 3.5815 1.51066 3.925L10.5857 13.0917L1.51066 22.1667C1.1692 22.5102 0.977539 22.9748 0.977539 23.4592C0.977539 23.9435 1.1692 24.4082 1.51066 24.7517C1.68045 24.9249 1.88293 25.0627 2.10637 25.1571C2.32981 25.2515 2.56976 25.3007 2.81233 25.3017C3.05489 25.3007 3.29484 25.2515 3.51828 25.1571C3.74172 25.0627 3.9442 24.9249 4.11399 24.7517L14.4907 14.3933C14.6768 14.2217 14.8253 14.0133 14.9268 13.7814C15.0284 13.5495 15.0809 13.299 15.0809 13.0458C15.0809 12.7926 15.0284 12.5422 14.9268 12.3103C14.8253 12.0784 14.6768 11.87 14.4907 11.6983Z" fill="white" fill-opacity="0.55"/>
</svg>
