<svg width="21" height="21" viewBox="0 0 21 21" fill="none" xmlns="http://www.w3.org/2000/svg">
<path d="M3.20825 16.75H7.62492C7.76201 16.7508 7.89791 16.7245 8.02482 16.6727C8.15174 16.6208 8.26717 16.5445 8.3645 16.4479L15.5728 9.22916L18.5312 6.33333C18.6288 6.23649 18.7063 6.12128 18.7592 5.99434C18.8121 5.86741 18.8393 5.73126 18.8393 5.59374C18.8393 5.45623 18.8121 5.32008 18.7592 5.19314C18.7063 5.06621 18.6288 4.951 18.5312 4.85416L14.1145 0.385409C14.0177 0.287775 13.9025 0.210281 13.7755 0.157397C13.6486 0.104513 13.5124 0.0772858 13.3749 0.0772858C13.2374 0.0772858 13.1013 0.104513 12.9743 0.157397C12.8474 0.210281 12.7322 0.287775 12.6353 0.385409L9.69784 3.33333L2.46867 10.5521C2.37213 10.6494 2.29575 10.7648 2.24391 10.8918C2.19207 11.0187 2.16579 11.1546 2.16659 11.2917V15.7083C2.16659 15.9846 2.27633 16.2495 2.47168 16.4449C2.66703 16.6402 2.93198 16.75 3.20825 16.75ZM13.3749 2.59374L16.3228 5.54166L14.8437 7.02083L11.8958 4.07291L13.3749 2.59374ZM4.24992 11.7187L10.427 5.54166L13.3749 8.48958L7.19784 14.6667H4.24992V11.7187ZM19.8749 18.8333H1.12492C0.848651 18.8333 0.583699 18.9431 0.388349 19.1384C0.192999 19.3338 0.083252 19.5987 0.083252 19.875C0.083252 20.1513 0.192999 20.4162 0.388349 20.6116C0.583699 20.8069 0.848651 20.9167 1.12492 20.9167H19.8749C20.1512 20.9167 20.4161 20.8069 20.6115 20.6116C20.8068 20.4162 20.9166 20.1513 20.9166 19.875C20.9166 19.5987 20.8068 19.3338 20.6115 19.1384C20.4161 18.9431 20.1512 18.8333 19.8749 18.8333Z" fill="#E72487"/>
</svg>
