<svg width="25" height="25" viewBox="0 0 25 25" fill="none" xmlns="http://www.w3.org/2000/svg">
<path d="M24.205 12.2158C21.8483 6.74414 17.415 3.34914 12.6317 3.34914C7.84835 3.34914 3.41501 6.74414 1.05835 12.2158C0.994106 12.363 0.960948 12.5219 0.960948 12.6825C0.960948 12.8431 0.994106 13.0019 1.05835 13.1491C3.41501 18.6208 7.84835 22.0158 12.6317 22.0158C17.415 22.0158 21.8483 18.6208 24.205 13.1491C24.2693 13.0019 24.3024 12.8431 24.3024 12.6825C24.3024 12.5219 24.2693 12.363 24.205 12.2158ZM12.6317 19.6825C8.92168 19.6825 5.43335 17.0108 3.41501 12.6825C5.43335 8.35413 8.92168 5.68247 12.6317 5.68247C16.3417 5.68247 19.83 8.35413 21.8483 12.6825C19.83 17.0108 16.3417 19.6825 12.6317 19.6825ZM12.6317 8.0158C11.7087 8.0158 10.8064 8.2895 10.039 8.80228C9.27159 9.31506 8.67345 10.0439 8.32024 10.8966C7.96703 11.7493 7.87462 12.6876 8.05468 13.5929C8.23475 14.4981 8.6792 15.3297 9.33185 15.9823C9.98449 16.6349 10.816 17.0794 11.7213 17.2595C12.6265 17.4395 13.5648 17.3471 14.4175 16.9939C15.2703 16.6407 15.9991 16.0426 16.5119 15.2751C17.0247 14.5077 17.2983 13.6054 17.2983 12.6825C17.2983 11.4448 16.8067 10.2578 15.9315 9.38264C15.0563 8.50747 13.8694 8.0158 12.6317 8.0158ZM12.6317 15.0158C12.1702 15.0158 11.7191 14.879 11.3353 14.6226C10.9516 14.3662 10.6526 14.0018 10.476 13.5754C10.2994 13.149 10.2531 12.6799 10.3432 12.2273C10.4332 11.7746 10.6554 11.3589 10.9818 11.0326C11.3081 10.7062 11.7238 10.484 12.1765 10.394C12.6291 10.3039 13.0982 10.3501 13.5246 10.5267C13.951 10.7034 14.3154 11.0024 14.5718 11.3861C14.8282 11.7699 14.965 12.221 14.965 12.6825C14.965 13.3013 14.7192 13.8948 14.2816 14.3324C13.844 14.77 13.2505 15.0158 12.6317 15.0158Z" fill="#9E99A4"/>
<path d="M23.9605 1.1208C23.852 1.01145 23.723 0.92466 23.5808 0.86543C23.4387 0.806199 23.2862 0.775705 23.1322 0.775705C22.9782 0.775705 22.8257 0.806199 22.6835 0.86543C22.5413 0.92466 22.4123 1.01145 22.3038 1.1208L1.30384 22.1208C1.19449 22.2293 1.1077 22.3583 1.04846 22.5005C0.989235 22.6426 0.95874 22.7951 0.95874 22.9491C0.95874 23.1031 0.989235 23.2556 1.04846 23.3978C1.1077 23.54 1.19449 23.669 1.30384 23.7775C1.4123 23.8868 1.54133 23.9736 1.6835 24.0328C1.82567 24.0921 1.97816 24.1226 2.13217 24.1226C2.28619 24.1226 2.43868 24.0921 2.58084 24.0328C2.72301 23.9736 2.85205 23.8868 2.96051 23.7775L23.9605 2.77747C24.0699 2.66901 24.1566 2.53998 24.2159 2.39781C24.2751 2.25564 24.3056 2.10315 24.3056 1.94914C24.3056 1.79512 24.2751 1.64263 24.2159 1.50046C24.1566 1.35829 24.0699 1.22926 23.9605 1.1208Z" fill="#9E99A4"/>
</svg>
