<svg width="16" height="16" viewBox="0 0 16 18" fill="none" xmlns="http://www.w3.org/2000/svg">
<path d="M14.7273 8.11818L2 0.77272C1.8618 0.69293 1.70503 0.650925 1.54545 0.650925C1.38587 0.650925 1.2291 0.69293 1.09091 0.77272C0.952174 0.852815 0.83707 0.968146 0.757249 1.10703C0.677428 1.24592 0.635724 1.40344 0.63636 1.56363V16.2545C0.635724 16.4147 0.677428 16.5722 0.757249 16.7111C0.83707 16.85 0.952174 16.9654 1.09091 17.0455C1.2291 17.1252 1.38587 17.1672 1.54545 17.1672C1.70503 17.1672 1.8618 17.1252 2 17.0455L14.7273 9.69999C14.8672 9.6207 14.9835 9.50572 15.0645 9.36678C15.1455 9.22783 15.1881 9.0699 15.1881 8.90908C15.1881 8.74827 15.1455 8.59034 15.0645 8.45139C14.9835 8.31245 14.8672 8.19746 14.7273 8.11818ZM2.45454 14.6818V3.13636L12.4545 8.90908L2.45454 14.6818Z" fill="#E72487"/>
</svg>
