<svg width="6" height="10" viewBox="0 0 6 10" fill="none" xmlns="http://www.w3.org/2000/svg">
<path d="M2.40831 5.00001L5.35831 2.05001C5.51352 1.89387 5.60063 1.68266 5.60063 1.46251C5.60063 1.24235 5.51352 1.03114 5.35831 0.875008C5.28084 0.796901 5.18867 0.734906 5.08712 0.692598C4.98557 0.650291 4.87665 0.62851 4.76664 0.62851C4.65663 0.62851 4.54771 0.650291 4.44616 0.692598C4.34461 0.734906 4.25244 0.796901 4.17497 0.875008L0.64164 4.40834C0.563533 4.48581 0.501538 4.57798 0.459231 4.67953C0.416924 4.78108 0.395142 4.89 0.395142 5.00001C0.395142 5.11002 0.416924 5.21894 0.459231 5.32049C0.501538 5.42204 0.563533 5.5142 0.64164 5.59167L4.17497 9.16667C4.25284 9.24391 4.34519 9.30501 4.44672 9.34648C4.54825 9.38795 4.65697 9.40898 4.76664 9.40834C4.87631 9.40898 4.98503 9.38795 5.08656 9.34648C5.18809 9.30501 5.28044 9.24391 5.35831 9.16667C5.51352 9.01054 5.60063 8.79933 5.60063 8.57917C5.60063 8.35902 5.51352 8.14781 5.35831 7.99167L2.40831 5.00001Z" fill="#AEAEAE"/>
</svg>
