<svg width="21" height="17" viewBox="0 0 21 17" fill="none" xmlns="http://www.w3.org/2000/svg">
<path d="M17.7916 0.166672H3.20825C2.37945 0.166672 1.58459 0.495912 0.998543 1.08196C0.412492 1.66801 0.083252 2.46287 0.083252 3.29167V13.7083C0.083252 14.5371 0.412492 15.332 0.998543 15.918C1.58459 16.5041 2.37945 16.8333 3.20825 16.8333H17.7916C18.6204 16.8333 19.4152 16.5041 20.0013 15.918C20.5873 15.332 20.9166 14.5371 20.9166 13.7083V3.29167C20.9166 2.46287 20.5873 1.66801 20.0013 1.08196C19.4152 0.495912 18.6204 0.166672 17.7916 0.166672ZM3.20825 2.25H17.7916C18.0679 2.25 18.3328 2.35975 18.5282 2.5551C18.7235 2.75045 18.8333 3.0154 18.8333 3.29167L10.4999 8.375L2.16659 3.29167C2.16659 3.0154 2.27633 2.75045 2.47168 2.5551C2.66703 2.35975 2.93198 2.25 3.20825 2.25ZM18.8333 13.7083C18.8333 13.9846 18.7235 14.2496 18.5282 14.4449C18.3328 14.6403 18.0679 14.75 17.7916 14.75H3.20825C2.93198 14.75 2.66703 14.6403 2.47168 14.4449C2.27633 14.2496 2.16659 13.9846 2.16659 13.7083V5.66667L9.95825 10.4271C10.1166 10.5185 10.2962 10.5666 10.4791 10.5666C10.6619 10.5666 10.8416 10.5185 10.9999 10.4271L18.8333 5.66667V13.7083Z" fill="#E72487"/>
</svg>
