<svg width="20" height="16" viewBox="0 0 20 16" fill="none" xmlns="http://www.w3.org/2000/svg">
<path d="M16.9993 -0.000488281H2.99927C2.20362 -0.000488281 1.44056 0.315582 0.877947 0.878191C0.315338 1.4408 -0.000732422 2.20386 -0.000732422 2.99951V12.9995C-0.000732422 13.7952 0.315338 14.5582 0.877947 15.1208C1.44056 15.6834 2.20362 15.9995 2.99927 15.9995H16.9993C17.7949 15.9995 18.558 15.6834 19.1206 15.1208C19.6832 14.5582 19.9993 13.7952 19.9993 12.9995V2.99951C19.9993 2.20386 19.6832 1.4408 19.1206 0.878191C18.558 0.315582 17.7949 -0.000488281 16.9993 -0.000488281ZM2.99927 1.99951H16.9993C17.2645 1.99951 17.5188 2.10487 17.7064 2.29241C17.8939 2.47994 17.9993 2.7343 17.9993 2.99951L9.99927 7.87951L1.99927 2.99951C1.99927 2.7343 2.10462 2.47994 2.29216 2.29241C2.4797 2.10487 2.73405 1.99951 2.99927 1.99951ZM17.9993 12.9995C17.9993 13.2647 17.8939 13.5191 17.7064 13.7066C17.5188 13.8942 17.2645 13.9995 16.9993 13.9995H2.99927C2.73405 13.9995 2.4797 13.8942 2.29216 13.7066C2.10462 13.5191 1.99927 13.2647 1.99927 12.9995V5.27951L9.47927 9.84951C9.63129 9.93728 9.80373 9.98349 9.97927 9.98349C10.1548 9.98349 10.3272 9.93728 10.4793 9.84951L17.9993 5.27951V12.9995Z" fill="white"/>
</svg>
