<svg width="18" height="18" viewBox="0 0 18 18" fill="none" xmlns="http://www.w3.org/2000/svg">
<path d="M16.4993 12.3328H4.83268C4.61167 12.3328 4.39971 12.245 4.24343 12.0887C4.08715 11.9324 3.99935 11.7205 3.99935 11.4995C3.99935 11.2785 4.08715 11.0665 4.24343 10.9102C4.39971 10.7539 4.61167 10.6661 4.83268 10.6661H13.5327C14.0899 10.6662 14.6311 10.48 15.0705 10.1373C15.5098 9.79461 15.8221 9.31493 15.9577 8.77447L17.3327 3.36614C17.3639 3.24314 17.3666 3.11465 17.3406 2.99045C17.3146 2.86625 17.2606 2.74962 17.1827 2.64947C17.1016 2.54675 16.9975 2.46455 16.8788 2.40954C16.7601 2.35452 16.6301 2.32824 16.4993 2.3328H4.63268C4.46076 1.84651 4.14262 1.4253 3.7219 1.12692C3.30118 0.828536 2.79847 0.667587 2.28268 0.666138H1.49935C1.27834 0.666138 1.06637 0.753935 0.910093 0.910215C0.753813 1.0665 0.666016 1.27846 0.666016 1.49947C0.666016 1.72048 0.753813 1.93245 0.910093 2.08873C1.06637 2.24501 1.27834 2.3328 1.49935 2.3328H2.28268C2.47304 2.32726 2.65956 2.38708 2.81119 2.50232C2.96281 2.61755 3.07039 2.78124 3.11602 2.96614L3.16602 3.36614L4.60768 8.99947C3.94464 9.02931 3.32061 9.32132 2.87287 9.81125C2.42512 10.3012 2.19035 10.9489 2.22018 11.612C2.25002 12.275 2.54203 12.899 3.03196 13.3468C3.5219 13.7945 4.16964 14.0293 4.83268 13.9995H4.98268C4.84563 14.3771 4.80159 14.7822 4.85429 15.1804C4.90699 15.5786 5.05489 15.9583 5.28545 16.2873C5.51601 16.6162 5.82245 16.8848 6.17881 17.0702C6.53517 17.2556 6.93097 17.3524 7.33268 17.3524C7.73439 17.3524 8.13019 17.2556 8.48656 17.0702C8.84292 16.8848 9.14936 16.6162 9.37992 16.2873C9.61048 15.9583 9.75837 15.5786 9.81107 15.1804C9.86378 14.7822 9.81974 14.3771 9.68268 13.9995H11.6494C11.5123 14.3771 11.4683 14.7822 11.521 15.1804C11.5737 15.5786 11.7216 15.9583 11.9521 16.2873C12.1827 16.6162 12.4891 16.8848 12.8455 17.0702C13.2018 17.2556 13.5976 17.3524 13.9993 17.3524C14.4011 17.3524 14.7969 17.2556 15.1532 17.0702C15.5096 16.8848 15.816 16.6162 16.0466 16.2873C16.2771 15.9583 16.425 15.5786 16.4777 15.1804C16.5304 14.7822 16.4864 14.3771 16.3493 13.9995H16.4993C16.7204 13.9995 16.9323 13.9117 17.0886 13.7554C17.2449 13.5991 17.3327 13.3872 17.3327 13.1661C17.3327 12.9451 17.2449 12.7332 17.0886 12.5769C16.9323 12.4206 16.7204 12.3328 16.4993 12.3328ZM15.4327 3.99947L14.341 8.36614C14.2954 8.55103 14.1878 8.71473 14.0362 8.82996C13.8846 8.94519 13.698 9.00502 13.5077 8.99947H6.31602L5.06602 3.99947H15.4327ZM7.33268 15.6661C7.16786 15.6661 7.00675 15.6173 6.86971 15.5257C6.73267 15.4341 6.62586 15.304 6.56278 15.1517C6.49971 14.9994 6.48321 14.8319 6.51536 14.6702C6.54752 14.5086 6.62688 14.3601 6.74343 14.2435C6.85997 14.127 7.00846 14.0476 7.17011 14.0155C7.33176 13.9833 7.49931 13.9998 7.65159 14.0629C7.80386 14.126 7.93401 14.2328 8.02557 14.3698C8.11714 14.5069 8.16602 14.668 8.16602 14.8328C8.16602 15.0538 8.07822 15.2658 7.92194 15.4221C7.76566 15.5783 7.5537 15.6661 7.33268 15.6661ZM13.9993 15.6661C13.8345 15.6661 13.6734 15.6173 13.5364 15.5257C13.3993 15.4341 13.2925 15.304 13.2295 15.1517C13.1664 14.9994 13.1499 14.8319 13.182 14.6702C13.2142 14.5086 13.2935 14.3601 13.4101 14.2435C13.5266 14.127 13.6751 14.0476 13.8368 14.0155C13.9984 13.9833 14.166 13.9998 14.3183 14.0629C14.4705 14.126 14.6007 14.2328 14.6922 14.3698C14.7838 14.5069 14.8327 14.668 14.8327 14.8328C14.8327 15.0538 14.7449 15.2658 14.5886 15.4221C14.4323 15.5783 14.2204 15.6661 13.9993 15.6661Z" fill="white"/>
</svg>
