<svg width="20" height="20" viewBox="0 0 20 20" fill="none" xmlns="http://www.w3.org/2000/svg">
<path d="M17.4993 13.3329H5.83268C5.61167 13.3329 5.39971 13.2451 5.24343 13.0888C5.08715 12.9326 4.99935 12.7206 4.99935 12.4996C4.99935 12.2786 5.08715 12.0666 5.24343 11.9103C5.39971 11.7541 5.61167 11.6663 5.83268 11.6663H14.5327C15.0899 11.6663 15.6311 11.4802 16.0705 11.1375C16.5098 10.7947 16.8221 10.3151 16.9577 9.77459L18.3327 4.36626C18.3639 4.24327 18.3666 4.11477 18.3406 3.99057C18.3146 3.86637 18.2606 3.74975 18.1827 3.64959C18.1016 3.54687 17.9975 3.46467 17.8788 3.40966C17.7601 3.35464 17.6301 3.32836 17.4993 3.33293H5.63268C5.46076 2.84664 5.14262 2.42543 4.7219 2.12704C4.30118 1.82866 3.79847 1.66771 3.28268 1.66626H2.49935C2.27834 1.66626 2.06637 1.75406 1.91009 1.91034C1.75381 2.06662 1.66602 2.27858 1.66602 2.49959C1.66602 2.72061 1.75381 2.93257 1.91009 3.08885C2.06637 3.24513 2.27834 3.33293 2.49935 3.33293H3.28268C3.47304 3.32738 3.65956 3.3872 3.81119 3.50244C3.96281 3.61767 4.07039 3.78136 4.11602 3.96626L4.16602 4.36626L5.60768 9.99959C4.94464 10.0294 4.32061 10.3214 3.87287 10.8114C3.42512 11.3013 3.19035 11.9491 3.22018 12.6121C3.25002 13.2751 3.54203 13.8992 4.03196 14.3469C4.5219 14.7947 5.16964 15.0294 5.83268 14.9996H5.98268C5.84563 15.3772 5.80159 15.7823 5.85429 16.1805C5.90699 16.5788 6.05489 16.9584 6.28545 17.2874C6.51601 17.6164 6.82245 17.8849 7.17881 18.0703C7.53517 18.2557 7.93097 18.3525 8.33268 18.3525C8.73439 18.3525 9.13019 18.2557 9.48656 18.0703C9.84292 17.8849 10.1494 17.6164 10.3799 17.2874C10.6105 16.9584 10.7584 16.5788 10.8111 16.1805C10.8638 15.7823 10.8197 15.3772 10.6827 14.9996H12.6493C12.5123 15.3772 12.4683 15.7823 12.521 16.1805C12.5737 16.5788 12.7216 16.9584 12.9521 17.2874C13.1827 17.6164 13.4891 17.8849 13.8455 18.0703C14.2018 18.2557 14.5976 18.3525 14.9993 18.3525C15.4011 18.3525 15.7969 18.2557 16.1532 18.0703C16.5096 17.8849 16.816 17.6164 17.0466 17.2874C17.2771 16.9584 17.425 16.5788 17.4777 16.1805C17.5304 15.7823 17.4864 15.3772 17.3493 14.9996H17.4993C17.7204 14.9996 17.9323 14.9118 18.0886 14.7555C18.2449 14.5992 18.3327 14.3873 18.3327 14.1663C18.3327 13.9452 18.2449 13.7333 18.0886 13.577C17.9323 13.4207 17.7204 13.3329 17.4993 13.3329ZM16.4327 4.99959L15.341 9.36626C15.2954 9.55116 15.1878 9.71485 15.0362 9.83008C14.8846 9.94532 14.698 10.0051 14.5077 9.99959H7.31602L6.06602 4.99959H16.4327ZM8.33268 16.6663C8.16786 16.6663 8.00675 16.6174 7.86971 16.5258C7.73267 16.4343 7.62586 16.3041 7.56278 16.1518C7.49971 15.9996 7.48321 15.832 7.51536 15.6704C7.54752 15.5087 7.62688 15.3602 7.74343 15.2437C7.85997 15.1271 8.00846 15.0478 8.17011 15.0156C8.33176 14.9835 8.49931 15 8.65159 15.063C8.80386 15.1261 8.93401 15.2329 9.02557 15.37C9.11714 15.507 9.16602 15.6681 9.16602 15.8329C9.16602 16.0539 9.07822 16.2659 8.92194 16.4222C8.76566 16.5785 8.5537 16.6663 8.33268 16.6663ZM14.9993 16.6663C14.8345 16.6663 14.6734 16.6174 14.5364 16.5258C14.3993 16.4343 14.2925 16.3041 14.2294 16.1518C14.1664 15.9996 14.1499 15.832 14.182 15.6704C14.2142 15.5087 14.2935 15.3602 14.4101 15.2437C14.5266 15.1271 14.6751 15.0478 14.8368 15.0156C14.9984 14.9835 15.166 15 15.3183 15.063C15.4705 15.1261 15.6007 15.2329 15.6922 15.37C15.7838 15.507 15.8327 15.6681 15.8327 15.8329C15.8327 16.0539 15.7449 16.2659 15.5886 16.4222C15.4323 16.5785 15.2204 16.6663 14.9993 16.6663Z" fill="white"/>
</svg>
