<svg width="25" height="25" viewBox="0 0 25 25" fill="none" xmlns="http://www.w3.org/2000/svg">
<circle cx="2.99927" cy="2.99957" r="1" fill="black" fill-opacity="0.12"/>
<ellipse cx="2.99927" cy="9.81775" rx="1" ry="1" fill="black" fill-opacity="0.12"/>
<circle cx="9.81738" cy="9.81775" r="1" fill="black" fill-opacity="0.12"/>
<ellipse cx="16.6357" cy="9.81775" rx="1" ry="1" fill="black" fill-opacity="0.12"/>
<ellipse cx="2.99927" cy="16.6359" rx="1" ry="1" fill="black" fill-opacity="0.12"/>
<ellipse cx="2.99927" cy="23.4541" rx="1" ry="1" fill="black" fill-opacity="0.12"/>
<ellipse cx="9.81738" cy="23.4541" rx="1" ry="1" fill="black" fill-opacity="0.12"/>
<circle cx="16.6357" cy="23.4541" r="1" fill="black" fill-opacity="0.12"/>
<circle cx="23.4539" cy="23.4541" r="1" fill="black" fill-opacity="0.12"/>
<circle cx="23.4539" cy="16.6359" r="1" fill="black" fill-opacity="0.12"/>
<circle cx="16.6357" cy="16.6359" r="1" fill="black" fill-opacity="0.12"/>
<ellipse cx="9.81738" cy="16.6359" rx="1" ry="1" fill="black" fill-opacity="0.12"/>
<ellipse cx="23.4539" cy="9.81775" rx="1" ry="1" fill="black" fill-opacity="0.12"/>
<ellipse cx="23.4539" cy="2.99957" rx="1" ry="1" fill="black" fill-opacity="0.12"/>
<ellipse cx="16.6357" cy="2.99957" rx="1" ry="1" fill="black" fill-opacity="0.12"/>
<ellipse cx="9.81738" cy="2.99957" rx="1" ry="1" fill="black" fill-opacity="0.12"/>
</svg>
