<svg width="14" height="18" viewBox="0 0 14 18" fill="none" xmlns="http://www.w3.org/2000/svg">
<path d="M13.5577 6.1662C13.4956 6.02346 13.3947 5.90097 13.2666 5.8126C13.1385 5.72423 12.9881 5.67351 12.8327 5.6662H9.01599L10.0743 1.7162C10.108 1.5926 10.1128 1.46288 10.0882 1.33714C10.0636 1.2114 10.0104 1.09302 9.93266 0.991199C9.85503 0.890354 9.75533 0.808628 9.64121 0.752292C9.5271 0.695956 9.40159 0.666505 9.27433 0.666199H3.44099C3.25286 0.659755 3.06808 0.717199 2.91676 0.829176C2.76544 0.941153 2.65649 1.10106 2.60766 1.28287L0.374328 9.6162C0.340622 9.7398 0.335869 9.86951 0.360438 9.99525C0.385008 10.121 0.438239 10.2394 0.515995 10.3412C0.594482 10.4432 0.695516 10.5256 0.811179 10.582C0.926842 10.6383 1.05399 10.6672 1.18266 10.6662H4.40766L2.89933 16.2829C2.84991 16.464 2.86309 16.6565 2.93675 16.8292C3.0104 17.0018 3.1402 17.1446 3.30513 17.2343C3.47005 17.324 3.66043 17.3554 3.84541 17.3233C4.0304 17.2913 4.19915 17.1978 4.32433 17.0579L13.4077 7.05787C13.5158 6.93944 13.5875 6.79231 13.6141 6.63415C13.6407 6.47598 13.6211 6.3135 13.5577 6.1662V6.1662ZM5.39933 13.3995L6.29099 10.0662C6.3247 9.94259 6.32945 9.81288 6.30488 9.68714C6.28031 9.5614 6.22708 9.44302 6.14933 9.3412C6.0717 9.24035 5.972 9.15863 5.85788 9.10229C5.74376 9.04596 5.61826 9.01651 5.49099 9.0162H2.29099L4.07433 2.33287H8.18266L7.12433 6.28287C7.09035 6.40875 7.08638 6.54084 7.11275 6.66853C7.13911 6.79623 7.19507 6.91595 7.27613 7.01808C7.35718 7.12021 7.46107 7.20189 7.57944 7.25656C7.69781 7.31124 7.82735 7.33737 7.95766 7.33287H10.9327L5.39933 13.3995Z" fill="white"/>
</svg>
